<?xml version="1.0" standalone="no"?>
<!DOCTYPE svg PUBLIC "-//W3C//DTD SVG 20010904//EN"
 "http://www.w3.org/TR/2001/REC-SVG-20010904/DTD/svg10.dtd">
<svg version="1.0" xmlns="http://www.w3.org/2000/svg"
 width="260.000000pt" height="260.000000pt" viewBox="0 0 260.000000 260.000000"
 preserveAspectRatio="xMidYMid meet">
<metadata>
Created by potrace 1.11, written by Peter Selinger 2001-2013
</metadata>
<g transform="translate(0.000000,260.000000) scale(0.100000,-0.100000)"
fill="#000000" stroke="none">
<path d="M623 2438 c-237 -359 -438 -834 -489 -1153 -3 -22 -8 -47 -9 -55 -2
-8 -7 -40 -11 -70 -4 -30 -9 -57 -9 -60 -1 -3 -5 -41 -9 -85 -4 -44 -10 -96
-12 -115 -2 -19 -7 -116 -9 -215 l-5 -180 30 80 c38 98 99 229 104 224 3 -2 1
-24 -4 -49 -4 -25 -11 -74 -14 -109 -4 -36 -9 -85 -12 -110 -12 -107 -14 -134
-20 -303 -4 -98 -4 -178 -1 -178 3 0 23 33 45 72 51 93 161 241 238 320 134
137 284 224 402 231 57 3 48 18 -23 40 -153 46 -336 11 -454 -89 l-32 -26 5
73 c3 41 9 116 12 168 3 52 8 102 9 110 2 9 4 26 4 37 1 15 14 28 44 42 38 19
39 21 15 22 -32 0 -59 10 -54 19 2 3 7 40 11 81 4 41 11 97 16 124 5 27 7 51
5 53 -2 3 0 19 4 36 5 18 12 57 15 87 3 30 8 62 10 70 2 8 7 31 10 50 20 115
65 294 149 586 53 182 98 339 102 348 13 34 -4 13 -63 -76z m-99 -313 c-109
-309 -225 -746 -278 -1047 -10 -61 -22 -95 -36 -110 l-22 -23 7 69 c13 140 55
384 86 501 6 22 13 47 14 55 19 86 112 341 169 464 18 39 46 99 61 134 15 34
29 61 31 59 2 -1 -13 -48 -32 -102z"/>
<path d="M2289 2428 c-1 -3 -2 -22 -13 -163 -4 -49 -9 -103 -11 -120 -3 -16
-7 -52 -10 -80 -11 -104 -25 -222 -35 -285 -6 -36 -12 -81 -15 -100 -2 -19 -7
-48 -10 -65 -3 -16 -13 -68 -21 -115 -40 -214 -149 -568 -165 -538 -6 12 -10
29 -26 118 -2 14 -11 54 -19 90 -9 36 -17 74 -20 85 -39 192 -158 476 -220
526 -12 9 -15 10 -10 1 23 -38 126 -418 150 -552 2 -14 7 -43 11 -65 4 -22 9
-49 11 -60 2 -11 6 -40 9 -65 3 -25 8 -54 10 -65 4 -21 13 -115 20 -225 2 -30
4 -122 4 -204 1 -83 5 -146 9 -140 43 48 205 520 236 684 2 14 16 81 29 150
14 69 30 150 35 180 7 41 10 -26 11 -262 l1 -318 40 0 40 0 2 283 3 282 40 0
40 0 0 -280 0 -280 40 0 40 0 2 270 c2 148 5 276 8 283 2 7 10 12 17 11 46 -6
48 -2 48 76 0 64 -2 75 -17 76 -10 1 -80 1 -156 1 l-139 -1 6 67 c4 37 9 94
12 127 3 33 8 76 10 95 7 53 15 580 9 580 -3 0 -5 -1 -6 -2z"/>
<path d="M1710 1438 c-18 -95 -34 -182 -36 -193 -2 -11 -6 -31 -9 -45 -2 -14
-7 -38 -10 -55 -2 -16 -9 -55 -15 -85 -6 -30 -13 -69 -16 -85 -2 -17 -8 -44
-12 -60 l-8 -29 -11 30 c-6 16 -25 66 -42 112 l-32 83 28 35 c33 45 51 127 46
218 -7 135 -58 196 -165 196 -45 0 -57 -3 -61 -17 -4 -16 -5 -16 -6 -1 -1 14
-14 17 -96 16 l-95 0 -1 -71 0 -72 -14 37 c-22 61 -45 87 -78 92 -65 11 -217
17 -218 9 0 -4 -1 -123 -2 -263 -2 -221 -5 -259 -20 -287 -10 -18 -22 -33 -27
-33 -5 0 -17 15 -27 33 -15 27 -18 66 -19 277 -2 135 -3 253 -3 263 -1 13 -10
17 -35 17 -39 0 -44 -8 -41 -72 0 -26 -2 -45 -7 -42 -4 3 -8 14 -8 24 0 10
-12 32 -26 49 -29 35 -66 40 -101 16 -45 -31 -67 -168 -42 -259 6 -22 31 -60
56 -87 49 -53 63 -92 52 -152 -12 -70 -43 -75 -55 -9 -8 41 -18 52 -53 52 -23
0 -24 -1 -18 -65 10 -107 52 -165 112 -156 40 6 70 51 81 118 3 21 7 39 8 41
2 1 11 -25 21 -59 34 -112 106 -152 164 -90 31 33 61 116 61 167 0 18 3 35 8
37 4 3 6 -46 4 -109 -3 -89 0 -114 10 -115 7 -1 25 -2 41 -3 15 -2 27 2 28 8
0 6 2 60 2 120 l2 110 35 9 c48 12 78 43 95 97 13 42 14 33 14 -150 l1 -196
88 1 c48 0 93 4 100 8 6 5 12 4 12 -1 0 -5 18 -9 40 -10 45 -2 44 -5 40 116
-2 63 10 67 28 10 8 -24 22 -62 32 -85 l19 -42 53 3 c29 2 63 4 76 5 12 0 22
7 22 16 0 7 5 36 11 63 l10 49 44 1 43 1 7 -52 c9 -68 19 -84 47 -81 13 1 28
3 34 3 8 1 7 23 -3 74 -8 39 -27 146 -43 237 -25 145 -48 273 -65 363 -3 15
-7 39 -10 53 -2 15 -6 28 -8 30 -2 3 -19 -73 -37 -168z m-1105 -28 c6 -20 11
-22 55 -24 24 -1 24 -2 25 -103 1 -100 -6 -129 -19 -79 -3 13 -26 46 -51 74
-50 55 -61 86 -45 126 11 31 26 33 35 6z m765 -210 l0 -231 -62 3 -62 3 -1 82
0 81 35 0 c19 0 40 0 45 1 9 1 13 86 6 123 0 4 -13 6 -28 6 -61 -1 -59 -4 -59
82 l1 80 62 0 63 0 0 -230z m-290 180 c5 -10 10 -39 10 -65 0 -36 -6 -51 -25
-71 -14 -14 -29 -23 -34 -20 -9 6 -13 174 -4 188 6 11 41 -9 53 -32z m416 19
c36 -40 13 -169 -30 -169 -11 0 -14 20 -14 95 1 101 8 114 44 74z m259 -229
c4 -25 7 -49 8 -55 1 -5 -7 -10 -18 -10 -20 0 -22 10 -10 70 2 11 4 26 4 34 2
26 9 7 16 -39z"/>
<path d="M1420 549 c0 -5 5 -7 10 -4 6 3 10 8 10 11 0 2 -4 4 -10 4 -5 0 -10
-5 -10 -11z"/>
<path d="M600 460 l0 -70 30 0 c27 0 29 3 26 30 -2 16 1 27 5 24 5 -3 9 -17 9
-32 0 -21 2 -24 10 -12 5 8 10 29 10 45 0 23 -3 27 -10 15 -8 -12 -10 -9 -11
13 -2 40 -3 45 -11 53 -7 6 -9 -12 -11 -103 -1 -14 -7 -21 -19 -20 -23 2 -24
36 0 53 16 13 16 13 0 14 -10 0 -18 7 -18 16 0 9 8 23 18 30 16 12 15 13 -5
14 -22 0 -23 -4 -23 -70z"/>
<path d="M688 506 c-3 -14 -1 -29 3 -33 4 -4 9 -26 12 -48 2 -25 4 -12 5 33 2
69 -11 98 -20 48z"/>
<path d="M721 458 c1 -40 4 -62 6 -49 3 13 11 31 19 38 23 24 15 83 -12 83
-11 0 -14 -17 -13 -72z m29 33 c0 -11 -4 -23 -10 -26 -6 -4 -10 5 -10 19 0 14
5 26 10 26 6 0 10 -9 10 -19z"/>
<path d="M769 493 c0 -21 -2 -47 -3 -59 -1 -11 1 -29 5 -40 6 -14 8 -8 9 21
l2 40 14 -35 14 -35 -5 43 c-2 23 0 42 5 42 5 0 10 -19 12 -42 3 -39 5 -41 36
-42 27 -1 34 3 39 23 4 14 -1 37 -12 57 -17 31 -13 60 6 49 5 -4 9 -2 9 3 0 5
-18 10 -40 10 -37 1 -40 -2 -41 -26 l-1 -27 -7 25 c-4 14 -15 26 -24 28 -14 3
-17 -4 -18 -35z m111 -48 c16 -20 6 -44 -17 -40 -10 2 -21 4 -25 4 -13 2 -9
39 5 45 10 5 10 7 0 12 -7 3 -13 14 -13 24 0 31 24 29 31 -2 4 -15 12 -35 19
-43z m-83 45 c1 -11 -2 -20 -8 -20 -5 0 -9 9 -9 20 0 11 4 20 8 20 4 0 8 -9 9
-20z"/>
<path d="M913 460 c-5 -38 -6 -70 -1 -70 4 0 8 9 8 20 0 27 14 25 28 -2 9 -19
9 -16 5 17 -4 22 -9 41 -13 43 -3 1 -4 16 -2 32 2 17 0 30 -5 30 -6 0 -14 -31
-20 -70z"/>
<path d="M985 458 c0 -40 4 -72 8 -70 4 1 12 2 17 2 10 0 35 48 32 61 -1 4 8
5 18 2 24 -6 26 3 4 25 -15 14 -15 17 0 27 22 16 20 25 -5 25 -15 0 -19 -5
-15 -15 3 -8 1 -15 -3 -15 -5 0 -11 7 -15 15 -3 8 -14 15 -24 15 -16 0 -18 -8
-17 -72z m39 29 c7 -28 -7 -83 -20 -79 -9 2 -14 76 -6 99 6 18 19 8 26 -20z
m26 -7 c0 -5 -2 -10 -4 -10 -3 0 -8 5 -11 10 -3 6 -1 10 4 10 6 0 11 -4 11
-10z"/>
<path d="M1120 500 c0 -16 -1 -33 -2 -37 -1 -5 -5 -23 -9 -40 -4 -18 -3 -33 2
-33 5 0 9 9 9 20 0 25 20 26 27 1 5 -19 36 -34 47 -23 11 11 5 67 -9 85 -14
20 -10 51 6 41 5 -3 9 0 9 5 0 6 -6 11 -14 11 -23 0 -30 -38 -12 -65 20 -30
21 -62 1 -62 -14 0 -17 10 -31 90 -7 44 -24 49 -24 7z m17 -42 c-3 -7 -5 -2
-5 12 0 14 2 19 5 13 2 -7 2 -19 0 -25z"/>
<path d="M1210 460 l0 -70 30 0 c17 0 33 0 38 0 4 -1 9 14 12 32 l6 33 6 -31
c8 -38 37 -54 45 -24 3 11 10 20 15 20 5 0 7 -4 3 -9 -3 -5 -2 -12 3 -15 13
-8 11 27 -3 47 -8 12 -15 15 -20 8 -3 -6 -4 -11 0 -11 3 0 1 -10 -6 -21 -15
-29 -29 -8 -29 43 0 43 14 56 36 34 9 -9 21 -13 27 -9 7 4 6 8 -3 11 -8 3 -19
11 -23 18 -18 31 -47 9 -47 -37 0 -22 -13 -25 -29 -5 -9 11 -8 17 4 29 8 9 15
18 15 21 0 10 -30 6 -31 -4 -1 -5 -2 -16 -4 -22 -1 -7 5 -23 12 -36 19 -31 13
-54 -14 -58 -30 -5 -42 32 -16 51 17 13 17 14 1 15 -10 0 -18 7 -18 16 0 9 8
23 18 30 16 12 15 13 -5 14 -22 0 -23 -4 -23 -70z"/>
<path d="M1360 520 c0 -5 6 -10 14 -10 17 0 29 -27 15 -35 -5 -4 -19 -3 -30 0
-20 7 -21 6 -2 -12 10 -11 21 -18 26 -16 4 2 7 -5 7 -16 0 -12 3 -21 8 -21 4
0 6 19 5 42 -1 24 -2 51 -2 61 -1 18 -41 25 -41 7z"/>
<path d="M1415 469 c0 -45 -3 -63 -15 -69 -13 -8 -13 -9 3 -10 9 0 18 3 18 8
6 29 5 123 -1 127 -3 2 -6 -23 -5 -56z"/>
<path d="M1442 463 c-9 -67 -7 -99 5 -55 7 27 23 29 23 2 0 -11 5 -20 11 -20
6 0 8 7 5 16 -3 9 -9 40 -12 70 -4 30 -10 54 -14 54 -4 0 -12 -30 -18 -67z
m22 2 c3 -8 1 -15 -4 -15 -6 0 -10 7 -10 15 0 8 2 15 4 15 2 0 6 -7 10 -15z"/>
<path d="M1512 505 c0 -16 2 -22 5 -12 2 9 2 23 0 30 -3 6 -5 -1 -5 -18z"/>
<path d="M1537 516 c-4 -10 -3 -24 3 -31 5 -6 7 -15 4 -18 -10 -9 -14 -77 -5
-77 5 0 7 14 6 30 -3 40 11 39 19 -2 9 -47 19 -26 18 41 0 47 3 59 13 54 10
-3 14 -22 14 -60 -1 -30 2 -57 5 -60 3 -4 6 21 6 55 0 33 5 64 10 67 6 4 10
-20 10 -63 0 -67 1 -70 21 -65 20 6 20 7 5 18 -20 15 -21 41 -1 49 13 5 21
-14 13 -28 -7 -9 35 -44 47 -40 17 7 13 66 -4 72 -10 3 -10 0 -3 -15 6 -10 7
-25 2 -32 -6 -11 -11 -9 -19 8 -15 27 -4 91 15 91 8 0 14 5 14 10 0 23 -32 8
-41 -20 -12 -34 -39 -41 -39 -10 0 11 7 20 15 20 8 0 15 5 15 10 0 6 -25 10
-55 10 l-55 0 -1 -37 -1 -38 -12 40 c-9 32 -13 36 -19 21z"/>
<path d="M1744 465 c2 -36 6 -69 10 -72 4 -4 5 5 2 20 -5 29 10 38 17 10 2
-10 4 -2 4 18 0 20 3 41 6 47 11 17 -3 42 -24 42 -16 0 -18 -7 -15 -65z m29
39 c7 -8 -3 -34 -13 -34 -5 0 -8 9 -7 20 1 20 8 25 20 14z"/>
<path d="M1808 513 c-2 -10 2 -28 10 -40 8 -14 10 -23 4 -23 -6 0 -13 8 -15
18 -3 11 -5 9 -6 -8 0 -14 -8 -36 -17 -49 -16 -22 -15 -23 2 -19 11 2 19 10
19 17 0 8 6 16 13 19 7 2 12 -5 12 -17 0 -17 6 -21 33 -21 29 1 30 2 14 14
-14 11 -17 24 -14 53 2 22 0 48 -4 59 -5 12 -8 -7 -9 -51 l-2 -70 -12 62 c-14
68 -22 85 -28 56z"/>
<path d="M1510 429 c0 -23 3 -40 6 -36 9 9 11 68 2 73 -4 3 -8 -14 -8 -37z"/>
<path d="M1042 413 c3 -21 18 -34 30 -27 13 8 9 24 -4 22 -7 -2 -12 3 -10 10
1 6 -3 12 -8 12 -6 0 -10 -8 -8 -17z"/>
</g>
</svg>
